<svg width="48" height="48" viewBox="0 0 48 48" fill="none" xmlns="http://www.w3.org/2000/svg">
  <path d="M42 16C42 16 37.5 10 24 10C10.5 10 6 16 6 16C6 16 4.5 18 4.5 24C4.5 30 6 32 6 32C6 32 10.5 38 24 38C37.5 38 42 32 42 32C42 32 43.5 30 43.5 24C43.5 18 42 16 42 16Z" stroke="#CEB46A" stroke-width="2" stroke-linecap="round" stroke-linejoin="round" fill="none"/>
  <path d="M24 31C28.9706 31 33 27.9706 33 23C33 18.0294 28.9706 15 24 15C19.0294 15 15 18.0294 15 23C15 27.9706 19.0294 31 24 31Z" stroke="#CEB46A" stroke-width="2" stroke-linecap="round" stroke-linejoin="round" fill="none"/>
  <path d="M15.5 20C16.3284 20 17 19.3284 17 18.5C17 17.6716 16.3284 17 15.5 17C14.6716 17 14 17.6716 14 18.5C14 19.3284 14.6716 20 15.5 20Z" fill="#CEB46A"/>
  <path d="M32.5 20C33.3284 20 34 19.3284 34 18.5C34 17.6716 33.3284 17 32.5 17C31.6716 17 31 17.6716 31 18.5C31 19.3284 31.6716 20 32.5 20Z" fill="#CEB46A"/>
  <path d="M18 28C20 30 28 30 30 28" stroke="#CEB46A" stroke-width="2" stroke-linecap="round" stroke-linejoin="round"/>
</svg> 